<svg xmlns="http://www.w3.org/2000/svg" width="129" height="37" viewBox="0 0 129 37">
  <g id="Group_2885" data-name="Group 2885" transform="translate(-0.391 0.331)">
    <rect id="Rectangle_2092" data-name="Rectangle 2092" width="129" height="37" rx="8" transform="translate(0.391 -0.331)"/>
    <g id="Group_2881" data-name="Group 2881" transform="translate(37.15 9.121)">
      <path id="Path_3531" data-name="Path 3531" d="M5.629-4.143c2.109,0,3.125-.772,3.408-1.865h.026c0,.617-.013,1.338-.026,1.711h1.9V-8.67h-5.2v1.312H8.472v.039c0,.6-.669,1.543-2.431,1.543C3.97-5.776,3.2-6.972,3.2-8.4a2.575,2.575,0,0,1,2.881-2.688c1.878,0,2.534.823,2.534,1.479v.09h2.2a1.131,1.131,0,0,0,.013-.18c0-1.582-1.119-3.215-4.823-3.215-3.678,0-5.337,2.058-5.337,4.5C.665-6.188,2.015-4.143,5.629-4.143Zm10.16-.026c3.254,0,4.463-1.569,4.463-3.292s-1.235-3.318-4.463-3.318-4.463,1.608-4.463,3.318S12.523-4.169,15.789-4.169Zm0-1.646c-1.608,0-2.173-.772-2.173-1.646,0-.9.566-1.672,2.173-1.672s2.173.772,2.173,1.672S17.384-5.815,15.789-5.815Zm9.183,1.646c3.254,0,4.463-1.569,4.463-3.292s-1.235-3.318-4.463-3.318-4.463,1.608-4.463,3.318S21.705-4.169,24.972-4.169Zm0-1.646c-1.608,0-2.173-.772-2.173-1.646,0-.9.566-1.672,2.173-1.672s2.173.772,2.173,1.672S26.567-5.815,24.972-5.815Zm10.8.283H32.714c-.553,0-.759-.219-.759-.476a.8.8,0,0,1,.141-.437,8.42,8.42,0,0,0,1.479.116c2.611,0,3.768-.977,3.768-2.225a1.77,1.77,0,0,0-.412-1.157,1.183,1.183,0,0,1-.09-.4c0-.309.206-.527.733-.527a4.14,4.14,0,0,1,.553.039v-1.286a4.124,4.124,0,0,0-.772-.064c-1.235,0-1.723.437-1.723.9a.839.839,0,0,0,.386.643l-.013.039a6.039,6.039,0,0,0-2.431-.412c-2.649,0-3.768,1.029-3.768,2.225A1.922,1.922,0,0,0,31.184-6.7v.026a1.222,1.222,0,0,0-1.055,1.222A1.193,1.193,0,0,0,30.9-4.336v.013c-1.067.039-1.53.5-1.53,1.106,0,.81.9,1.723,4.591,1.723,3.357,0,4.54-1.08,4.54-2.315C38.5-4.67,37.936-5.532,35.775-5.532Zm-2.2-3.935c1.08,0,1.608.36,1.608.913,0,.527-.5.913-1.608.913s-1.608-.347-1.608-.913C31.968-9.056,32.444-9.467,33.576-9.467Zm.386,6.713c-1.595,0-2.3-.3-2.3-.72,0-.231.141-.54,1.119-.54h2.251c.952,0,1.183.206,1.183.514C36.213-3.063,35.492-2.754,33.962-2.754ZM38.785-4.3h2.289v-9H38.785ZM49.909-7.525c0-2.071-1.273-3.254-4.077-3.254-2.778,0-4.347,1.3-4.347,3.37,0,1.608,1.029,3.241,4.476,3.241,2.817,0,3.884-1,3.948-2.225H47.877c-.09.437-.514.785-1.916.785C44.431-5.609,43.916-6.2,43.8-7h6.109Zm-2.032-.656H43.852c.193-.746.772-1.157,2.109-1.157,1.479,0,1.916.527,1.916,1.106ZM53.665-4.3h2.469v-2.5h2.559c2.984,0,4.231-1,4.231-2.932,0-2.019-1.273-3.035-4.167-3.035H53.665Zm2.469-4.064v-2.572h2.521c1.376,0,1.929.45,1.929,1.286,0,.875-.617,1.286-1.942,1.286ZM63.208-4.3H65.5v-9H63.208Zm5.8.129c2.006,0,2.765-.63,3.022-1.543h.013c0,.4-.039.977-.064,1.415h2.289V-7.911c0-1.839-1.4-2.868-4.167-2.868-2.829,0-3.923.862-3.923,2.071a2.09,2.09,0,0,0,.013.231h2.161a.565.565,0,0,1-.013-.116c0-.373.334-.746,1.672-.746,1.453,0,1.968.347,1.968,1.209v.09H68.416c-1.788,0-2.444.81-2.444,1.852C65.973-5.275,66.667-4.169,69.008-4.169Zm.643-1.44C68.442-5.609,68-5.918,68-6.317s.334-.54,1.106-.54h2.868v.051C71.979-6.278,71.194-5.609,69.651-5.609Zm7.086,4.115c1.672,0,2.5-.682,3.447-2.636l3.164-6.52H81.11L79-6.355h-.026l-2.341-4.3H74.011L77.522-4.3h.45a1.611,1.611,0,0,1-1.7,1.157,4.494,4.494,0,0,1-1.029-.129v1.582A6.7,6.7,0,0,0,76.737-1.494Z" transform="translate(-0.564 22.013)" fill="#ffeb00"/>
      <path id="Path_3532" data-name="Path 3532" d="M3.838-2.543c2.169,0,3.046-1.129,3.046-2.136v-.089H5.869v.049c0,.674-.658,1.292-2.006,1.292-1.568,0-2.193-.91-2.193-1.868,0-1.1.755-1.9,2.177-1.9,1.438,0,1.99.755,1.99,1.316v.032H6.852v-.106c0-.869-.772-2.128-3.062-2.128C1.637-8.083.516-6.832.516-5.3.516-3.948,1.369-2.543,3.838-2.543Zm6.5-.016c1.99,0,2.754-1.015,2.754-2.079s-.78-2.1-2.754-2.1-2.754,1.04-2.754,2.1S8.338-2.559,10.336-2.559Zm0-.812c-1.259,0-1.714-.609-1.714-1.267s.463-1.283,1.714-1.283S12.05-5.3,12.05-4.639,11.6-3.371,10.336-3.371Zm3.533.731h1.04V-4.46a1.412,1.412,0,0,1,1.47-1.421c.845,0,1.186.406,1.186,1.153V-2.64h1.04V-4.46a1.389,1.389,0,0,1,1.478-1.421c.845,0,1.178.406,1.178,1.153V-2.64H22.3V-5a1.6,1.6,0,0,0-1.836-1.738,1.728,1.728,0,0,0-1.884,1.259h-.008c-.146-.764-.731-1.259-1.811-1.259A1.757,1.757,0,0,0,14.9-5.467h-.008l.016-1.186H13.87ZM23.146-7.23h1.1v-.942h-1.1ZM23.17-2.64h1.04V-6.653H23.17Zm1.958,0h1.04v-1.8c0-.975.885-1.438,1.86-1.438,1.2,0,1.568.479,1.568,1.194V-2.64h1.04V-4.964c0-.983-.577-1.771-2.217-1.771-1.3,0-1.949.439-2.25,1.259h-.016l.016-1.178h-1.04ZM35.3-3.323H33.356c-.422,0-.577-.187-.577-.406a.555.555,0,0,1,.106-.317,4.733,4.733,0,0,0,1.015.1c1.584,0,2.307-.617,2.307-1.4a1.078,1.078,0,0,0-.317-.788.718.718,0,0,1-.065-.276c0-.171.122-.333.455-.333a1.852,1.852,0,0,1,.406.049V-7.4a2.541,2.541,0,0,0-.479-.049c-.7,0-.983.276-.983.577a.543.543,0,0,0,.187.39l-.008.016a3.66,3.66,0,0,0-1.5-.268c-1.616,0-2.307.642-2.307,1.389a1.192,1.192,0,0,0,.788,1.137V-4.2a.711.711,0,0,0-.447.715.807.807,0,0,0,.4.69c-.666,0-1.015.317-1.015.747,0,.593.569,1.178,2.859,1.178,2.1,0,2.77-.666,2.77-1.413C36.946-2.795,36.605-3.323,35.3-3.323ZM33.9-6.036c.877,0,1.316.276,1.316.69,0,.4-.414.69-1.316.69s-1.324-.26-1.324-.69C32.576-5.719,32.974-6.036,33.9-6.036Zm.276,4.476c-1.348,0-1.819-.227-1.819-.552,0-.26.211-.455,1.04-.455h1.576c.747,0,.934.171.934.406C35.907-1.788,35.444-1.56,34.176-1.56Zm8.318-1c2.088,0,2.551-.707,2.551-1.324A.909.909,0,0,0,44.5-4.76a5.144,5.144,0,0,0-1.592-.227,10.157,10.157,0,0,1-1.438-.106c-.26-.057-.341-.171-.341-.333,0-.382.447-.569,1.4-.569,1.1,0,1.292.3,1.3.7h.983c0-.755-.406-1.438-2.315-1.438-1.535,0-2.4.544-2.4,1.356a.868.868,0,0,0,.431.8,4.4,4.4,0,0,0,1.746.292,11.9,11.9,0,0,1,1.413.089c.26.057.325.179.325.341,0,.317-.276.552-1.511.552-1.251,0-1.413-.341-1.421-.674H40.09C40.09-3.371,40.415-2.559,42.494-2.559Zm6,0c1.99,0,2.754-1.015,2.754-2.079s-.78-2.1-2.754-2.1-2.754,1.04-2.754,2.1S46.5-2.559,48.5-2.559Zm0-.812c-1.259,0-1.714-.609-1.714-1.267s.463-1.283,1.714-1.283,1.714.617,1.714,1.283S49.756-3.371,48.5-3.371Zm6.206.812c1.99,0,2.754-1.015,2.754-2.079s-.78-2.1-2.754-2.1-2.754,1.04-2.754,2.1S52.7-2.559,54.7-2.559Zm0-.812c-1.259,0-1.714-.609-1.714-1.267s.463-1.283,1.714-1.283,1.714.617,1.714,1.283S55.961-3.371,54.7-3.371Zm3.533.731h1.04v-1.8c0-.975.885-1.438,1.86-1.438,1.2,0,1.568.479,1.568,1.194V-2.64h1.04V-4.964c0-.983-.577-1.771-2.217-1.771-1.3,0-1.949.439-2.25,1.259h-.016l.016-1.178h-1.04Z" transform="translate(-0.516 8.172)" fill="#ffeb00"/>
    </g>
    <path id="Icon_awesome-google-play" data-name="Icon awesome-google-play" d="M12.072,8.039,4.5.446l9.634,5.531L12.072,8.039ZM2.523,0a1.334,1.334,0,0,0-.745,1.211V16.352a1.334,1.334,0,0,0,.745,1.211l8.8-8.783ZM17.112,7.74,15.091,6.57,12.837,8.783,15.091,11l2.062-1.17a1.376,1.376,0,0,0-.041-2.086ZM4.5,17.12l9.634-5.531L12.072,9.528Z" transform="translate(10.103 9.933)" fill="#ffeb00"/>
  </g>
</svg>
