<svg xmlns="http://www.w3.org/2000/svg" width="129" height="37" viewBox="0 0 129 37"><g id="Group_2884" data-name="Group 2884" transform="translate(-0.391 -0.261)"><rect id="Rectangle_2092" width="129" height="37" data-name="Rectangle 2092" rx="8" transform="translate(0.391 0.261)"/><path id="Icon_awesome-apple" fill="#ffeb00" d="M15.1,13.4A4.4,4.4,0,0,1,17.454,9.4a5.059,5.059,0,0,0-3.988-2.1c-1.672-.132-3.5.975-4.167.975-.706,0-2.326-.928-3.6-.928-2.627.042-5.42,2.1-5.42,6.272a11.736,11.736,0,0,0,.678,3.824c.6,1.728,2.778,5.966,5.048,5.9,1.187-.028,2.025-.843,3.569-.843,1.5,0,2.274.843,3.6.843,2.288-.033,4.257-3.885,4.831-5.618A4.668,4.668,0,0,1,15.1,13.4ZM12.435,5.664a4.435,4.435,0,0,0,1.13-3.414,4.993,4.993,0,0,0-3.2,1.643A4.5,4.5,0,0,0,9.162,7.279a3.955,3.955,0,0,0,3.273-1.615Z" data-name="Icon awesome-apple" transform="translate(10.798 4.743)"/><g id="Group_2881" data-name="Group 2881" transform="translate(37.058 8.623)"><path id="Path_3529" fill="#ffeb00" d="M9.653-4.113h2.868l-4.6-8.462H4.984L.38-4.113H2.926L3.8-5.837H8.778ZM4.521-7.277,6.27-10.724h.013L8.045-7.277Zm8.218,5.71h2.289V-4.036c0-.347-.039-.926-.064-1.273h.013c.45.823,1.363,1.325,2.932,1.325,2.4,0,3.884-1.132,3.884-3.447,0-1.916-1.26-3.164-3.884-3.164-1.569,0-2.559.54-2.894,1.5H15l.026-1.376H12.739Zm4.656-4.064c-1.608,0-2.366-.694-2.366-1.518v-.039c0-1.042.862-1.762,2.354-1.762s2.135.63,2.135,1.595C19.517-6.171,18.861-5.631,17.395-5.631ZM22.2-1.567h2.289V-4.036c0-.347-.039-.926-.064-1.273h.013c.45.823,1.363,1.325,2.932,1.325,2.4,0,3.884-1.132,3.884-3.447,0-1.916-1.26-3.164-3.884-3.164-1.569,0-2.559.54-2.894,1.5h-.013l.026-1.376H22.2Zm4.656-4.064c-1.608,0-2.366-.694-2.366-1.518v-.039c0-1.042.862-1.762,2.354-1.762s2.135.63,2.135,1.595C28.983-6.171,28.327-5.631,26.861-5.631ZM39.7-3.959c4.36,0,5.08-1.582,5.08-2.919A1.922,1.922,0,0,0,43.5-8.692a10.359,10.359,0,0,0-3.009-.476,19.375,19.375,0,0,1-2.688-.257c-.36-.116-.54-.309-.54-.63,0-.6.707-.977,2.4-.977,1.749,0,2.508.45,2.508,1.222H44.39c0-1.53-.694-2.919-4.72-2.919-3.357,0-4.874,1.286-4.874,2.855a1.89,1.89,0,0,0,1.029,1.749,8.7,8.7,0,0,0,3.048.566,26.263,26.263,0,0,1,2.765.219c.45.1.669.309.669.656,0,.579-.373,1.029-2.611,1.029-2.122,0-2.636-.579-2.636-1.3H34.847C34.847-5.824,35.3-3.959,39.7-3.959Zm9.9-.026a7.671,7.671,0,0,0,1.839-.193V-5.759a9.418,9.418,0,0,1-1.466.129c-1.312,0-1.736-.257-1.736-1V-8.82H51.5v-1.646H48.235v-1.44H46.358l-.116.887c-.051.386-.154.553-.489.553h-.977V-8.82h1.17v2.238C45.946-5.091,46.8-3.985,49.6-3.985Zm6.276,0c3.254,0,4.463-1.569,4.463-3.292S59.1-10.6,55.875-10.6s-4.463,1.608-4.463,3.318S52.608-3.985,55.875-3.985Zm0-1.646c-1.608,0-2.173-.772-2.173-1.646,0-.9.566-1.672,2.173-1.672s2.173.772,2.173,1.672S57.47-5.631,55.875-5.631Zm4.849,1.518h2.289V-6.6a2.046,2.046,0,0,1,2.1-2.225c1.106,0,1.428.579,1.428,1.646,0,.244-.013.5-.026.643h2.122c.026-.244.064-.772.064-1.312,0-1.595-.669-2.752-2.778-2.752a2.832,2.832,0,0,0-2.907,1.968h-.039l.039-1.839H60.723ZM77.507-7.341c0-2.071-1.273-3.254-4.077-3.254-2.778,0-4.347,1.3-4.347,3.37,0,1.608,1.029,3.241,4.476,3.241,2.817,0,3.884-1,3.948-2.225H75.475c-.09.437-.514.785-1.916.785-1.53,0-2.045-.592-2.161-1.389h6.109ZM75.475-8H71.449c.193-.746.772-1.157,2.109-1.157,1.479,0,1.916.527,1.916,1.106Z" data-name="Path 3529" transform="translate(-0.38 21.829)"/><path id="Path_3530" fill="#ffeb00" d="M3.838-2.543c2.169,0,3.046-1.129,3.046-2.136v-.089H5.869v.049c0,.674-.658,1.292-2.006,1.292-1.568,0-2.193-.91-2.193-1.868,0-1.1.755-1.9,2.177-1.9,1.438,0,1.99.755,1.99,1.316v.032H6.852v-.106c0-.869-.772-2.128-3.062-2.128C1.637-8.083.516-6.832.516-5.3.516-3.948,1.369-2.543,3.838-2.543Zm6.5-.016c1.99,0,2.754-1.015,2.754-2.079s-.78-2.1-2.754-2.1-2.754,1.04-2.754,2.1S8.338-2.559,10.336-2.559Zm0-.812c-1.259,0-1.714-.609-1.714-1.267s.463-1.283,1.714-1.283S12.05-5.3,12.05-4.639,11.6-3.371,10.336-3.371Zm3.533.731h1.04V-4.46a1.412,1.412,0,0,1,1.47-1.421c.845,0,1.186.406,1.186,1.153V-2.64h1.04V-4.46a1.389,1.389,0,0,1,1.478-1.421c.845,0,1.178.406,1.178,1.153V-2.64H22.3V-5a1.6,1.6,0,0,0-1.836-1.738,1.728,1.728,0,0,0-1.884,1.259h-.008c-.146-.764-.731-1.259-1.811-1.259A1.757,1.757,0,0,0,14.9-5.467h-.008l.016-1.186H13.87ZM23.146-7.23h1.1v-.942h-1.1ZM23.17-2.64h1.04V-6.653H23.17Zm1.958,0h1.04v-1.8c0-.975.885-1.438,1.86-1.438,1.2,0,1.568.479,1.568,1.194V-2.64h1.04V-4.964c0-.983-.577-1.771-2.217-1.771-1.3,0-1.949.439-2.25,1.259h-.016l.016-1.178h-1.04ZM35.3-3.323H33.356c-.422,0-.577-.187-.577-.406a.555.555,0,0,1,.106-.317,4.733,4.733,0,0,0,1.015.1c1.584,0,2.307-.617,2.307-1.4a1.078,1.078,0,0,0-.317-.788.718.718,0,0,1-.065-.276c0-.171.122-.333.455-.333a1.852,1.852,0,0,1,.406.049V-7.4a2.541,2.541,0,0,0-.479-.049c-.7,0-.983.276-.983.577a.543.543,0,0,0,.187.39l-.008.016a3.66,3.66,0,0,0-1.5-.268c-1.616,0-2.307.642-2.307,1.389a1.192,1.192,0,0,0,.788,1.137V-4.2a.711.711,0,0,0-.447.715.807.807,0,0,0,.4.69c-.666,0-1.015.317-1.015.747,0,.593.569,1.178,2.859,1.178,2.1,0,2.77-.666,2.77-1.413C36.946-2.795,36.605-3.323,35.3-3.323ZM33.9-6.036c.877,0,1.316.276,1.316.69,0,.4-.414.69-1.316.69s-1.324-.26-1.324-.69C32.576-5.719,32.974-6.036,33.9-6.036Zm.276,4.476c-1.348,0-1.819-.227-1.819-.552,0-.26.211-.455,1.04-.455h1.576c.747,0,.934.171.934.406C35.907-1.788,35.444-1.56,34.176-1.56Zm8.318-1c2.088,0,2.551-.707,2.551-1.324A.909.909,0,0,0,44.5-4.76a5.144,5.144,0,0,0-1.592-.227,10.157,10.157,0,0,1-1.438-.106c-.26-.057-.341-.171-.341-.333,0-.382.447-.569,1.4-.569,1.1,0,1.292.3,1.3.7h.983c0-.755-.406-1.438-2.315-1.438-1.535,0-2.4.544-2.4,1.356a.868.868,0,0,0,.431.8,4.4,4.4,0,0,0,1.746.292,11.9,11.9,0,0,1,1.413.089c.26.057.325.179.325.341,0,.317-.276.552-1.511.552-1.251,0-1.413-.341-1.421-.674H40.09C40.09-3.371,40.415-2.559,42.494-2.559Zm6,0c1.99,0,2.754-1.015,2.754-2.079s-.78-2.1-2.754-2.1-2.754,1.04-2.754,2.1S46.5-2.559,48.5-2.559Zm0-.812c-1.259,0-1.714-.609-1.714-1.267s.463-1.283,1.714-1.283,1.714.617,1.714,1.283S49.756-3.371,48.5-3.371Zm6.206.812c1.99,0,2.754-1.015,2.754-2.079s-.78-2.1-2.754-2.1-2.754,1.04-2.754,2.1S52.7-2.559,54.7-2.559Zm0-.812c-1.259,0-1.714-.609-1.714-1.267s.463-1.283,1.714-1.283,1.714.617,1.714,1.283S55.961-3.371,54.7-3.371Zm3.533.731h1.04v-1.8c0-.975.885-1.438,1.86-1.438,1.2,0,1.568.479,1.568,1.194V-2.64h1.04V-4.964c0-.983-.577-1.771-2.217-1.771-1.3,0-1.949.439-2.25,1.259h-.016l.016-1.178h-1.04Z" data-name="Path 3530" transform="translate(-0.424 8.172)"/></g></g></svg>