<svg xmlns="http://www.w3.org/2000/svg" xmlns:xlink="http://www.w3.org/1999/xlink" id="Group_2524" width="112.464" height="27.077" data-name="Group 2524" viewBox="0 0 112.464 27.077"><defs><clipPath id="clip-path"><rect id="Rectangle_2010" width="112.464" height="27.077" fill="#fff" data-name="Rectangle 2010"/></clipPath></defs><path id="Path_1879" fill="#0f0f0f" d="M298.029,43.337v3.618h-16.6V44.442l11.958-13.291H281.577V27.533h16.185v2.513L285.8,43.337Z" data-name="Path 1879" transform="translate(-240.213 -23.501)"/><g id="Group_2296" data-name="Group 2296"><g id="Group_2295" clip-path="url(#clip-path)" data-name="Group 2295"><path id="Path_1880" fill="#0f0f0f" d="M420.355,35.951H402.533c.723,2.971,3.694,5.065,7.655,5.065,2.818,0,5.332-.914,6.664-2.323h3.161a10.463,10.463,0,0,1-9.863,6.055,10.169,10.169,0,1,1,10.282-10.092c0,.419-.038.876-.076,1.295m-17.822-2.78H417.69c-.686-2.97-3.77-5.027-7.578-5.027-3.846,0-6.855,2.056-7.578,5.027" data-name="Path 1880" transform="translate(-341.214 -20.837)"/><path id="Path_1881" fill="#0f0f0f" d="M561.611,25.452v4.456c-4.8,0-7.655,2.285-7.655,6.055v9.216h-2.59V25.757h2.59V30.9a8.07,8.07,0,0,1,7.655-5.446" data-name="Path 1881" transform="translate(-470.625 -21.725)"/><path id="Path_1882" fill="#0f0f0f" d="M626.781,34.58a10.341,10.341,0,1,1,10.358,10.168A10.046,10.046,0,0,1,626.781,34.58m17.975,0c0-3.694-3.275-6.474-7.616-6.474-4.38,0-7.616,2.78-7.616,6.474s3.237,6.474,7.616,6.474c4.341,0,7.616-2.78,7.616-6.474" data-name="Path 1882" transform="translate(-534.996 -20.837)"/><path id="Path_1883" d="M35.266,12.862a3.981,3.981,0,0,0-4.458-2.779A13.538,13.538,0,0,0,5.139,8.536l-2.306.7a3.982,3.982,0,0,0,1.15,7.793,3.9,3.9,0,0,0,.64-.053,13.538,13.538,0,0,0,25.685,1.543l2.3-.691a3.985,3.985,0,0,0,2.662-4.963m-3.352,2.674-.846.255-2.621.791L16.579,20.159a2.763,2.763,0,0,1-3.469-1.927c-.539-1.787,1.133-3.419,3.252-5.487a32.414,32.414,0,0,0,2.378-2.487L6.576,13.925l-2.134.643a1.673,1.673,0,0,1-.218.05,1.593,1.593,0,0,1-.7-3.1l.851-.256L7,10.47,18.774,6.922a2.847,2.847,0,0,1,3.263,4.2,22.214,22.214,0,0,1-3.45,3.907c-.488.476-1.167,1.139-1.683,1.709l11.955-3.6,2.135-.643a1.652,1.652,0,0,1,.217-.05,1.593,1.593,0,0,1,.7,3.1" data-name="Path 1883" transform="translate(0)"/><path id="Path_1884" fill="#ffeb00" d="M45.847,55.161,45,55.416l-2.621.791L30.512,59.784a2.763,2.763,0,0,1-3.469-1.927c-.539-1.787,1.133-3.419,3.252-5.487a32.412,32.412,0,0,0,2.378-2.487L20.508,53.55l-2.134.643a1.674,1.674,0,0,1-.218.05,1.593,1.593,0,0,1-.7-3.1l.851-.256,2.623-.791,11.778-3.548a2.847,2.847,0,0,1,3.263,4.2,22.213,22.213,0,0,1-3.45,3.907c-.488.476-1.167,1.139-1.683,1.709l11.955-3.6,2.135-.643a1.653,1.653,0,0,1,.217-.05,1.593,1.593,0,0,1,.7,3.1" data-name="Path 1884" transform="translate(-13.932 -39.625)"/></g></g></svg>