<svg xmlns="http://www.w3.org/2000/svg" width="13.919" height="13.912" viewBox="0 0 13.919 13.912">
  <g id="Group_2736" data-name="Group 2736" transform="translate(-18.78 -236.58)">
    <path id="Path_3343" data-name="Path 3343" d="M31.7,243.277c-.046,1.916-.132,3.4-.943,4.17-.8.849-2.4.9-4.459.949a9.565,9.565,0,0,1-3.93-.554v1.393a2.951,2.951,0,0,1-1.539-.778c-.938-.886-1-2.646-1.048-4.914.05-2.265.11-4.03,1.048-4.917.886-.937,2.646-1,4.915-1.047h.265c2.137.056,3.8.146,4.651,1.047C31.56,239.479,31.65,241.139,31.7,243.277Z" transform="translate(0 0)" fill="#ededed" stroke="#000" stroke-width="2"/>
    <g id="Ellipse_102" data-name="Ellipse 102" transform="translate(24.749 242.282)" fill="#b4b5c6" stroke="#000" stroke-width="2">
      <circle cx="0.962" cy="0.962" r="0.962" stroke="none"/>
      <circle cx="0.962" cy="0.962" r="0.038" fill="none"/>
    </g>
    <g id="Ellipse_103" data-name="Ellipse 103" transform="translate(22.185 242.282)" fill="#b4b5c6" stroke="#000" stroke-width="2">
      <circle cx="0.962" cy="0.962" r="0.962" stroke="none"/>
      <circle cx="0.962" cy="0.962" r="0.038" fill="none"/>
    </g>
    <g id="Ellipse_104" data-name="Ellipse 104" transform="translate(27.313 242.282)" fill="#b4b5c6" stroke="#000" stroke-width="2">
      <circle cx="0.962" cy="0.962" r="0.962" stroke="none"/>
      <circle cx="0.962" cy="0.962" r="0.038" fill="none"/>
    </g>
  </g>
</svg>
