<svg xmlns="http://www.w3.org/2000/svg" width="40" height="40" viewBox="0 0 40 40">
  <g id="Group_2878" data-name="Group 2878" transform="translate(0)">
    <g id="Path_3524" data-name="Path 3524" transform="translate(0)">
      <path d="M 20 39 C 17.43457984924316 39 14.94641971588135 38.49777984619141 12.60464954376221 37.50730133056641 C 10.34226036071777 36.55038833618164 8.310219764709473 35.18027877807617 6.564970016479492 33.43503189086914 C 4.819719791412354 31.68977928161621 3.449609994888306 29.65773963928223 2.492700099945068 27.39534950256348 C 1.502220034599304 25.05357933044434 1 22.56542015075684 1 20 C 1 17.43457984924316 1.502220034599304 14.94641971588135 2.492700099945068 12.60464954376221 C 3.449609994888306 10.34226036071777 4.819719791412354 8.310219764709473 6.564970016479492 6.564970016479492 C 8.310219764709473 4.819719791412354 10.34226036071777 3.449609994888306 12.60464954376221 2.492700099945068 C 14.94641971588135 1.502220034599304 17.43457984924316 1 20 1 C 22.56542015075684 1 25.05357933044434 1.502220034599304 27.39534950256348 2.492700099945068 C 29.65773963928223 3.449609994888306 31.68977928161621 4.819719791412354 33.43503189086914 6.564970016479492 C 35.18027877807617 8.310219764709473 36.55038833618164 10.34226036071777 37.50730133056641 12.60464954376221 C 38.49777984619141 14.94641971588135 39 17.43457984924316 39 20 C 39 22.56542015075684 38.49777984619141 25.05357933044434 37.50730133056641 27.39534950256348 C 36.55038833618164 29.65773963928223 35.18027877807617 31.68977928161621 33.43503189086914 33.43503189086914 C 31.68977928161621 35.18027877807617 29.65773963928223 36.55038833618164 27.39534950256348 37.50730133056641 C 25.05357933044434 38.49777984619141 22.56542015075684 39 20 39 Z" stroke="none"/>
      <path d="M 20 2 C 15.19202995300293 2 10.67182922363281 3.872329711914062 7.272079467773438 7.272079467773438 C 3.872329711914062 10.67182922363281 2 15.19202995300293 2 20 C 2 24.80797004699707 3.872329711914062 29.32817077636719 7.272079467773438 32.72792053222656 C 10.67182922363281 36.12767028808594 15.19202995300293 38 20 38 C 24.80797004699707 38 29.32817077636719 36.12767028808594 32.72792053222656 32.72792053222656 C 36.12767028808594 29.32817077636719 38 24.80797004699707 38 20 C 38 15.19202995300293 36.12767028808594 10.67182922363281 32.72792053222656 7.272079467773438 C 29.32817077636719 3.872329711914062 24.80797004699707 2 20 2 M 20 0 C 31.04568862915039 0 40 8.954309463500977 40 20 C 40 31.04568862915039 31.04568862915039 40 20 40 C 8.954309463500977 40 0 31.04568862915039 0 20 C 0 8.954309463500977 8.954309463500977 0 20 0 Z" stroke="none" fill="#fff"/>
    </g>
    <g id="Icon_feather-arrow-left" data-name="Icon feather-arrow-left" transform="translate(13.815 13.815)">
      <path id="Path_1905" data-name="Path 1905" d="M7.5,18H19.87" transform="translate(-7.5 -11.815)" fill="none" stroke="#ffeb00" stroke-linecap="round" stroke-linejoin="round" stroke-width="2"/>
      <path id="Path_1906" data-name="Path 1906" d="M7.5,19.87l6.185-6.185L7.5,7.5" transform="translate(-1.315 -7.5)" fill="none" stroke="#ffeb00" stroke-linecap="round" stroke-linejoin="round" stroke-width="2"/>
    </g>
  </g>
</svg>
